<?xml version="1.0" encoding="UTF-8" standalone="no"?>
<!-- Created with Inkscape (http://www.inkscape.org/) -->

<svg
   xmlns:dc="http://purl.org/dc/elements/1.1/"
   xmlns:cc="http://creativecommons.org/ns#"
   xmlns:rdf="http://www.w3.org/1999/02/22-rdf-syntax-ns#"
   xmlns:svg="http://www.w3.org/2000/svg"
   xmlns="http://www.w3.org/2000/svg"
   xmlns:sodipodi="http://sodipodi.sourceforge.net/DTD/sodipodi-0.dtd"
   xmlns:inkscape="http://www.inkscape.org/namespaces/inkscape"
   version="1.1"
   id="svg2"
   width="554.66669"
   height="610.66669"
   viewBox="0 0 554.66669 610.66669"
   sodipodi:docname="astronauta.svg"
   inkscape:version="0.92.5 (2060ec1f9f, 2020-04-08)">
  <metadata
     id="metadata8">
    <rdf:RDF>
      <cc:Work
         rdf:about="">
        <dc:format>image/svg+xml</dc:format>
        <dc:type
           rdf:resource="http://purl.org/dc/dcmitype/StillImage" />
        <dc:title />
      </cc:Work>
    </rdf:RDF>
  </metadata>
  <defs
     id="defs6" />
  <sodipodi:namedview
     pagecolor="#ffffff"
     bordercolor="#666666"
     borderopacity="1"
     objecttolerance="10"
     gridtolerance="10"
     guidetolerance="10"
     inkscape:pageopacity="0"
     inkscape:pageshadow="2"
     inkscape:window-width="1366"
     inkscape:window-height="704"
     id="namedview4"
     showgrid="false"
     inkscape:zoom="0.5"
     inkscape:cx="-100.43042"
     inkscape:cy="281.39897"
     inkscape:window-x="0"
     inkscape:window-y="27"
     inkscape:window-maximized="1"
     inkscape:current-layer="layer20" />
  <g
     inkscape:groupmode="layer"
     id="layer4"
     inkscape:label="coet"
     style="display:inline">
    <g
       inkscape:groupmode="layer"
       id="layer20"
       inkscape:label="foc"
       style="display:inline">
      <path
         style="fill:#ffffff;stroke:none;stroke-width:1px;stroke-linecap:butt;stroke-linejoin:miter;stroke-opacity:1;fill-opacity:1"
         d="m 180.6882,554.27928 c 0,0 -28.48347,39.06329 -46.51469,41.36139 0,0 8.04442,-12.41103 2.12132,-15.9099 -2.52427,-1.68934 -7.2581,3.79978 -28.90591,16.25733 -26.291101,15.12959 -51.943538,14.02234 -51.943538,14.02234 0,0 -2.325063,-28.1326 24.280907,-66.16534 0,0 15.429622,-19.27506 -0.994368,-15.00393 -4.732013,1.23058 -5.886601,3.50295 -8.136601,3.62795 0,0 12.189943,-32.59236 40.56218,-44.24118 l 10.46487,11.77654 c 0,0 -19.09189,7.24784 -25.809401,27.22361 0,0 -0.353554,1.94454 4.065864,-1.76777 4.419417,-3.71231 9.192387,2.2981 4.772967,7.42462 -4.41941,5.12653 -25.751294,43.67816 -19.62221,47.72971 7.700114,5.09005 45.25483,-14.49569 48.08326,-17.85445 2.82843,-3.35876 10.16466,-6.09879 7.07107,0.61872 -3.09359,6.71751 -2.03294,8.48528 3.35876,5.92202 5.71192,-2.7155 19.09188,-15.9099 24.39518,-23.5113 z"
         id="path1154"
         inkscape:connector-curvature="0"
         sodipodi:nodetypes="cccsccsccccscszzscc" />
      <path
         style="fill:#ffffff;stroke:none;stroke-width:1px;stroke-linecap:butt;stroke-linejoin:miter;stroke-opacity:1;fill-opacity:1"
         d="m 139.74198,517.77053 -16.08668,27.48878 26.16295,-17.14734 6.71751,5.03814 c 0,0 -4.59619,6.89429 -11.40209,12.19759 0,0 -2.2981,1.23744 -2.56326,-1.94454 0,0 0.14146,-4.74709 -5.03998,-0.46338 -4.77297,4.5078 -19.49261,10.39109 -21.21136,9.03705 -0.76922,-0.60599 -3.97748,-1.59099 0.79549,-12.02081 4.77297,-10.42983 7.95495,-12.63953 7.95495,-12.63953 0,0 3.53554,-4.41942 -3.44714,-3.53554 -6.98268,0.88388 11.75565,-14.58408 11.75565,-14.58408 z"
         id="path1156"
         inkscape:connector-curvature="0"
         sodipodi:nodetypes="cccccccsscscc" />
    </g>
    <g
       inkscape:groupmode="layer"
       id="layer19"
       inkscape:label="perfil"
       style="display:inline">
      <path
         style="fill:#ffffff;stroke:none;stroke-width:1px;stroke-linecap:butt;stroke-linejoin:miter;stroke-opacity:1;fill-opacity:1"
         d="m 245.41491,315.1176 -4.77084,-9.62253 c 0,0 70.3499,-90.49858 163.9193,-125.72009 l 4.31489,8.80538 c 0,0 -74.02941,15.78672 -163.46335,126.53724 z"
         id="path1089"
         inkscape:connector-curvature="0" />
      <path
         style="display:inline;fill:#ffffff;stroke:none;stroke-width:1px;stroke-linecap:butt;stroke-linejoin:miter;stroke-opacity:1;fill-opacity:1"
         d="m 478.73116,255.67345 7.55789,5.00476 c 0,0 -8.86756,107.9897 -272.64445,276.33722 l -5.21907,-12.57531 c 0,0 231.15728,-133.76321 270.30563,-268.76667 z"
         id="path1089-6"
         inkscape:connector-curvature="0"
         sodipodi:nodetypes="ccccc" />
      <path
         style="fill:#ffffff;stroke:none;stroke-width:1px;stroke-linecap:butt;stroke-linejoin:miter;stroke-opacity:1;fill-opacity:1"
         d="m 135.91157,451.51235 78.61944,77.9619 0.022,6.72896 -9.66352,-5.67336 -69.37814,-68.03936 -3.74514,-7.14723 z"
         id="path1106"
         inkscape:connector-curvature="0"
         sodipodi:nodetypes="ccccccc" />
      <path
         style="display:inline;fill:#ffffff;stroke:none;stroke-width:1px;stroke-linecap:butt;stroke-linejoin:miter;stroke-opacity:1;fill-opacity:1"
         d="m 176.35259,549.64158 26.20799,-26.11864 7.83326,1.46054 c -14.92931,14.30094 -27.70523,28.29118 -30.39065,30.0471 z"
         id="path1106-2"
         inkscape:connector-curvature="0"
         sodipodi:nodetypes="ccccc" />
      <path
         style="display:inline;fill:#ffffff;stroke:none;stroke-width:1px;stroke-linecap:butt;stroke-linejoin:miter;stroke-opacity:1;fill-opacity:1"
         d="m 112.22937,486.53151 26.20799,-26.11864 7.83326,1.46054 c -14.92931,14.30094 -27.70523,28.29118 -30.39065,30.0471 z"
         id="path1106-2-9"
         inkscape:connector-curvature="0"
         sodipodi:nodetypes="ccccc" />
      <path
         style="display:inline;fill:#ffffff;stroke:none;stroke-width:1px;stroke-linecap:butt;stroke-linejoin:miter;stroke-opacity:1;fill-opacity:1"
         d="m 113.57642,485.18651 66.40477,63.11511 0.022,6.72896 -12.49195,-7.35274 -52.83504,-52.38819 -5.24514,-6.27223 z"
         id="path1106-1"
         inkscape:connector-curvature="0"
         sodipodi:nodetypes="ccccccc" />
    </g>
    <g
       inkscape:groupmode="layer"
       id="layer16"
       inkscape:label="timo"
       style="display:inline">
      <path
         style="fill:#ffffff;stroke:none;stroke-width:1px;stroke-linecap:butt;stroke-linejoin:miter;stroke-opacity:1;fill-opacity:1"
         d="m 173.43899,361.34506 c -56.27967,-16.81921 -116.188989,99.88942 -116.188989,99.88942 0,0 49.810739,-41.72458 77.950569,1.61723 0,0 10.82345,-9.59099 23.57949,-31.28116 2.99782,-5.09745 -5.19217,-15.87722 1.28726,-41.03555 2.77174,-10.7621 18.70853,-22.15498 13.37167,-29.18994 z"
         id="path1019"
         inkscape:connector-curvature="0"
         sodipodi:nodetypes="cccssc" />
      <path
         style="display:inline;fill:#ffffff;stroke:none;stroke-width:1px;stroke-linecap:butt;stroke-linejoin:miter;stroke-opacity:1;fill-opacity:1"
         d="m 306.12361,490.3004 c 22.91488,50.48214 -100.84986,120.27506 -100.84986,120.27506 0,0 39.15433,-50.917 -0.38429,-80.04561 0,0 42.84508,-33.05829 59.01566,-34.01677 34.80097,-2.06277 19.30361,-56.69482 42.21849,-6.21268 z"
         id="path1019-5"
         inkscape:connector-curvature="0"
         sodipodi:nodetypes="zccsz" />
      <path
         style="display:inline;fill:#ffffff;stroke:none;stroke-width:1px;stroke-linecap:butt;stroke-linejoin:miter;stroke-opacity:1;fill-opacity:1"
         d="m 242.59624,425.45957 c 0,0 -6.23545,34.0237 -27.55993,51.16635 -22.74121,18.28155 -88.56879,65.79359 -88.56879,65.79359 0,0 43.67032,-67.65364 61.50355,-87.13431 17.83323,-19.48067 46.86919,-29.61317 54.62517,-29.82563 z"
         id="path1067"
         inkscape:connector-curvature="0"
         sodipodi:nodetypes="csczc" />
    </g>
    <g
       inkscape:groupmode="layer"
       id="layer18"
       inkscape:label="punta"
       style="display:inline">
      <path
         style="fill:#ffffff;stroke:none;stroke-width:1.01872766px;stroke-linecap:butt;stroke-linejoin:miter;stroke-opacity:1;fill-opacity:1"
         d="m 404.56337,179.77498 c 0,0 18.59246,53.7383 80.15312,86.83963 0,0 47.77585,-76.82095 48.66909,-130.09034 -66.72056,3.32217 -128.82221,43.25071 -128.82221,43.25071 z"
         id="path1085"
         inkscape:connector-curvature="0"
         sodipodi:nodetypes="cccc" />
    </g>
    <g
       inkscape:groupmode="layer"
       id="layer21"
       inkscape:label="finestra"
       style="display:inline">
      <path
         style="fill:#ffffff;stroke:none;stroke-width:1.05333328;fill-opacity:1"
         d="m 363.88867,260.29688 c -1.39672,-0.009 -2.79299,0.0527 -4.18359,0.18359 -22.52858,2.12018 -39.30282,21.74618 -37.88867,44.33008 1.41491,22.58344 20.50637,39.96281 43.12304,39.25586 22.61719,-0.70761 40.58562,-19.24675 40.58594,-41.875 l -0.32617,-5.22852 c -2.62342,-20.85405 -20.29253,-36.53663 -41.31055,-36.66601 z m 2.60352,15.51953 c 14.63263,0.0905 25.87287,8.88751 27.6991,23.40602 l 0.22852,3.64063 c 2.2e-4,15.7541 -12.50947,28.66155 -28.25586,29.15429 -15.74621,0.49277 -27.97773,-9.48566 -28.96278,-25.20876 -0.98489,-15.72274 10.69276,-29.38658 26.37695,-30.86328 0.9686,-0.0915 1.94117,-0.13456 2.91407,-0.1289 z"
         id="path1159"
         inkscape:connector-curvature="0"
         sodipodi:nodetypes="cccccccccccccc" />
    </g>
  </g>
  <g
     inkscape:groupmode="layer"
     id="layer3"
     inkscape:label="astronauta">
    <g
       inkscape:groupmode="layer"
       id="layer13"
       inkscape:label="traje"
       style="display:inline">
      <g
         inkscape:groupmode="layer"
         id="layer25"
         inkscape:label="cama_esquerra"
         style="display:inline">
        <path
           style="fill:#ffffff;stroke:none;fill-opacity:1"
           d="m 244.25,320.91602 -9,3.5 c 0,0 -9.30356,6.97717 -22.5,9.5 -7.2413,1.38436 -36.27267,-6.10497 -39.375,0.10546 -0.48915,0.97921 5.49414,6.73829 5.49414,6.73829 5.48039,11.57874 -0.1343,16.52475 -5.69531,21.20312 -5.56101,4.67837 -11.42383,15.20313 -11.42383,15.20313 -8.25,24.25 -5.75,35 -4.5,51 1.25,16 13.25,21.5 17.25,23.5 4,2 20.25,4.25 27.75,-6 7.5,-10.25 2.25,-38.5 2.25,-38.5 0,0 25,-9.75 38,-19.75 12.37166,-9.51667 15.75,-17.75 16.75,-30 1,-12.25 -9.81836,-35.95704 -9.81836,-35.95704 z m 2.45703,6.39257 c 0,0 7.71695,8.85548 5.55274,35.8711 -1.16406,14.53082 -34.55977,35.17854 -46.49219,36.76953 -11.93243,1.59099 -26.69364,3.18167 -33.23438,-6.1875 -6.54074,-9.36916 0.51083,-18.00568 2.56446,-21.30078 2.05363,-3.29509 10.20898,-13.61328 10.20898,-13.61328 0,0 1.82233,1.16312 4.375,3.53711 2.55267,2.37399 6.97561,2.71462 5.43555,-0.22266 -1.5498,-2.95585 -6.62891,-7.95508 -6.62891,-7.95508 l 0.3086,-4.55078 c 0,0 5.86047,3.08172 10.38671,4.375 1.74908,0.49976 5.48015,0.70634 3.80079,-1.94531 -1.67939,-2.65165 -11.75636,-3.90348 -18.51758,-11.80664 0,0 33.11523,6.40429 62.24023,-12.97071 z m -80.71289,60.61914 c 0,0 1.94418,12.19884 12.55078,15.73438 10.6066,3.53553 20.15235,1.58984 20.15235,1.58984 0,0 3.18186,19.62329 1.06054,26.51758 -2.12133,6.89429 -10.3886,11.93654 -19.09179,9.19141 -6.50889,-2.05301 -11.8443,-6.18699 -15.91016,-20.15235 -4.06586,-13.96536 -1.2366,-30.22921 1.23828,-32.88086 z"
           id="path1203"
           inkscape:connector-curvature="0" />
      </g>
      <g
         inkscape:groupmode="layer"
         id="layer15"
         inkscape:label="gua_esquerra"
         style="display:inline">
        <path
           style="fill:#ffffff;stroke:none;stroke-width:1px;stroke-linecap:butt;stroke-linejoin:miter;stroke-opacity:1;fill-opacity:1"
           d="m 101.88477,239.99805 c -0.32344,3.55791 -3.234379,11.48242 -3.234379,11.48242 -3.234463,6.9541 -0.484375,16.17187 -0.484375,16.17187 4.528244,22.96469 16.009764,23.61133 16.009764,23.61133 2.58757,3.39619 6.63086,3.23438 6.63086,3.23438 8.73305,3.71963 13.9082,0.16211 13.9082,0.16211 9.54166,-0.32345 7.11719,-10.18946 7.11719,-10.18946 0,0 -5.66183,-18.43524 -1.45703,-15.03906 4.2048,3.39619 11.64453,5.01172 11.64453,5.01172 14.23164,-0.48517 7.19354,-13.42505 -2.75,-21.02344 -9.94353,-7.59839 -10.51172,-12.45312 -10.51172,-12.45312 0,0 -5.3339,4.40164 -16.17187,5.17578 -13.58475,0.97033 -20.70117,-6.14453 -20.70117,-6.14453 z m 32.31445,6.02539 c 0.5204,-0.01 1.10533,0.0891 1.84375,0.34375 6.30696,2.17467 6.28358,7.74874 10.48633,10.85351 4.20276,3.10477 7.415,10.8301 3.85351,11.83594 -3.56148,1.00584 -7.42328,-3.09437 -10.84179,-5.85547 -3.41851,-2.7611 -8.14465,10.68397 -1.8086,20.63867 1.4643,2.30059 0.82544,7.79758 -4.10742,7.07422 -3.38394,-0.49622 -5.63397,-16.47211 -8.07422,-15.67187 -2.44025,0.80024 6.86167,17.06943 1.0332,15.42773 -3.16052,-0.89021 -7.0089,-14.69679 -8.94921,-14.7207 -3.94372,-0.0486 7.57318,16.04489 3.00585,14.82812 -3.48484,-0.92839 -7.22878,-14.16611 -10.60351,-14.48046 -3.85713,-0.35929 7.55862,11.6954 1.97851,10.07226 0,0 -8.81046,-9.44037 -9.62109,-19.59961 -0.81062,-10.15924 0.62153,-18.0939 1.08399,-18.76367 3.44564,-4.42552 9.21143,1.4588 20.25586,0.66992 7.15916,-0.51137 8.20976,-2.61097 10.46484,-2.65234 z"
           id="path943"
           inkscape:connector-curvature="0" />
      </g>
      <g
         inkscape:groupmode="layer"
         id="layer22"
         inkscape:label="brac_esquerra"
         style="display:inline">
        <path
           style="fill:#ffffff;stroke:none;stroke-width:1px;stroke-linecap:butt;stroke-linejoin:miter;stroke-opacity:1;fill-opacity:1"
           d="m 102.70711,242.98991 c 0,0 -5.605081,-46.85203 1.41789,-63.94822 4.82608,-11.74825 12.15749,-20.8217 16.15749,-23.5717 4,-2.75 36.84454,-31.18729 36.84454,-31.18729 l 3.37297,3.88399 c 0,0 -9.1482,6.28186 -7.40901,6.64645 7.58734,1.59055 9.29837,6.13927 12.5709,9.17316 3.27254,3.03388 4.70363,4.02261 4.70423,4.68039 0.001,1.31555 -9.91159,10.87902 -11.58579,10.61612 -1.6742,-0.26291 -2.81713,-4.44371 -7.8821,-8.47316 -3.86022,-3.07101 -4.24604,-2.69489 -10.58573,-6.51796 0,0 -12.22398,8.15695 -11.8125,10.125 0.23645,1.1309 14.2467,6.20812 20.3765,13.34484 11.47867,13.36422 6.9985,16.71766 14.3735,22.28016 0,0 -9.24508,5.39626 -10.21967,4.52145 -0.97459,-0.87481 -11.73959,-26.26993 -34.52773,-28.98484 0,0 -10.48464,5.31545 -12.64077,26.29673 -2.26035,21.99538 -0.61088,37.49232 1.0124,47.27424 0.55306,3.33273 3.29898,4.99241 5.77569,6.74099 z"
           id="path1178"
           inkscape:connector-curvature="0"
           sodipodi:nodetypes="cssccssszscssczcsscc" />
        <path
           style="fill:#ffffff;stroke:none;stroke-width:1px;stroke-linecap:butt;stroke-linejoin:miter;stroke-opacity:1;fill-opacity:1"
           d="m 181.37289,153.43377 c 0,0 7.77817,9.45755 2.12132,23.42291 -5.65685,13.96536 -32.86921,23.06001 -32.86921,23.06001 0,0 2.625,6.75 -4.375,9 0,0 2.375,10.25 -4,12.875 0,0 1.75,9.125 -3,11.75 0,0 1.05078,7.76825 -2,10.125 l -9.875,3.75 c 0,0 5.125,-2.75 5.375,-8.5 0,0 -0.25,-0.875 -2.375,0.875 -2.125,1.75 -14.875,0.125 -14.875,0.125 0,0 -1.75,-2.5 1.625,-2.875 3.375,-0.375 11.625,0.125 11.625,0.125 0,0 3.5,-0.875 4.625,-3.375 1.125,-2.5 1.625,-2.625 1.625,-2.625 0,0 6.625,-19 5.375,-23.375 -1.25,-4.375 -5.875,-6.75 -5.875,-6.75 0,0 0.75,-1.875 2.75,-1.125 2,0.75 3.25,3 3.25,3 0,0 5,-0.125 4.25,-2 -0.75,-1.875 -2.28125,-5.03125 -5.03125,-6.03125 -2.75,-1 -4.96875,-4.34375 -4.96875,-4.34375 0,0 4.18977,-0.65163 7,1.875 3.40625,3.0625 6.75,3.96875 8.125,3.34375 1.375,-0.625 3.5,-4.34375 3.5,-4.34375 0,0 13.5,0.875 22.375,-9.625 8.875,-10.5 5.62289,-28.35792 5.62289,-28.35792 z"
           id="path1180"
           inkscape:connector-curvature="0"
           sodipodi:nodetypes="cscccccccscscscscscsscsscsc" />
      </g>
      <g
         inkscape:groupmode="layer"
         id="layer14"
         inkscape:label="guant_dreta"
         style="display:inline">
        <path
           style="fill:#ffffff;stroke:none;stroke-width:1px;stroke-linecap:butt;stroke-linejoin:miter;stroke-opacity:1;fill-opacity:1"
           d="m 339.29521,211.53392 c 0,0 0.12129,-23.16685 14.23163,-28.94846 9.33129,-3.82343 25.87571,4.8517 25.87571,4.8517 0,0 2.99188,2.83016 -9.4608,1.85982 0,0 -5.41847,-3.53726 -13.26131,-1.6981 -7.84283,1.83917 -14.63391,11.3029 -17.38523,23.93504 z"
           id="path1013"
           inkscape:connector-curvature="0"
           sodipodi:nodetypes="cscczc" />
        <path
           style="fill:#ffffff;stroke:none;stroke-width:1px;stroke-linecap:butt;stroke-linejoin:miter;stroke-opacity:1;fill-opacity:1"
           d="m 357.53262,195.72758 c 0.20012,-0.0286 3.31631,0.0858 3.31631,0.0858 l 1.08638,-2.08699 1.05779,1.85828 c 0,0 2.02981,0.97202 1.91545,1.11496 -0.11435,0.14295 -4.65998,1.05779 -7.37593,-0.97202 z"
           id="path1015"
           inkscape:connector-curvature="0" />
      </g>
      <g
         inkscape:groupmode="layer"
         id="layer23"
         inkscape:label="brac_dreta">
        <path
           style="fill:#ffffff;stroke:none;stroke-width:1px;stroke-linecap:butt;stroke-linejoin:miter;stroke-opacity:1;fill-opacity:1"
           d="m 282.48916,123.11656 3.53553,-5.48007 c 0,0 21.92031,22.27386 25.10229,42.77996 3.18198,20.50609 29.52171,31.46625 39.59798,25.98617 l -7.07107,7.33623 c 0,0 0,-4.94975 -15.02601,-1.06066 0,0 -6.80591,2.65165 -8.48529,1.23744 -1.67937,-1.41421 4.5962,-3.71231 4.5962,-3.71231 0,0 3.53553,-1.67938 -0.0884,-3.88909 -3.62392,-2.20971 -8.66206,-6.71751 -15.55635,-4.06586 -6.89429,2.65165 -11.31371,7.15945 -11.31371,7.15945 0,0 -2.20971,-3.18198 1.32583,-4.41941 3.53553,-1.23744 8.92722,-6.01041 13.52341,-6.80591 4.5962,-0.79549 -4.94974,-5.56846 -11.22532,-2.74004 -6.27557,2.82843 -2.91681,-2.29809 -0.7071,-2.56326 2.20971,-0.26516 10.6835,-3.82842 6.52925,-5.15425 -4.15425,-1.32583 -21.03561,-4.48741 -28.97641,17.81674 -1.67782,4.71266 -1.67542,22.33564 12.04153,30.86787 12.30441,7.6536 11.79544,7.53357 31.1715,11.02839 0.30648,0.0553 2.49809,3.5309 -8.90526,2.59751 -4.84835,-0.39685 -14.55338,-2.66243 -19.7546,-4.82795 -10.40244,-4.33103 -16.81204,-13.67838 -16.81204,-13.67838 0,0 -3.74112,-14.73744 -0.11612,-33.61244 2.03635,-10.60304 6.375,-15 9,-21.75 2.625,-6.75 -2.25,-10.375 -2.25,-10.375 0,0 4.625,-8.25 5.875,5.125 l -0.375,7.875 c 0,0 7.20711,-4.81434 15.5,-3 9.22974,2.0193 -16.89668,-30.47526 -21.13584,-32.67513 z"
           id="path1183"
           inkscape:connector-curvature="0"
           sodipodi:nodetypes="ccsccccccscccccsssssscsscccsc" />
      </g>
      <g
         inkscape:groupmode="layer"
         id="layer24"
         inkscape:label="cos"
         style="display:inline">
        <path
           style="fill:#ffffff;fill-opacity:1"
           d="m 160.625,190.41669 c 0.5,0.25 5.68087,1.20174 6.09467,6.4974 0.19694,2.52036 -0.55806,13.16161 -0.55806,13.16161 l -4.78661,-0.28401 c 0,0 0.42678,-8.01517 -1.07322,-10.64017 -1.5,-2.625 -4.67678,-5.98483 -4.67678,-5.98483 z"
           id="path1186"
           inkscape:connector-curvature="0"
           sodipodi:nodetypes="csccscc" />
        <path
           style="fill:#ffffff;fill-opacity:1"
           d="m 159.375,221.04169 c 0,0 7,1.375 7.5,1.5 0.5,0.125 0.74569,1.9906 -1.6224,5.41789 -1.68894,2.44438 -1.48357,10.65668 -0.59727,10.97856 3.81222,1.38448 15.01624,4.72595 39.14905,6.49372 0,0 -15.92938,5.98483 -31.42938,2.23483 -15.5,-3.75 -13.5107,-8.89989 -13.6875,-11.6875 -0.1768,-2.78761 0.6875,-14.9375 0.6875,-14.9375 z"
           id="path1188"
           inkscape:connector-curvature="0"
           sodipodi:nodetypes="cssscszc" />
        <path
           style="fill:#ffffff;stroke:none;stroke-width:1px;stroke-linecap:butt;stroke-linejoin:miter;stroke-opacity:1;fill-opacity:1"
           d="m 160.68818,260.91844 c 59.39697,28.99137 114.24932,-4.00175 114.24932,-4.00175 0,0 1.90151,-2.01975 3.5625,-1.46875 1.67306,0.55502 1.18178,1.37639 1.75376,2.19391 2.01128,2.8747 4.62124,5.64984 4.62124,5.64984 l 4.5,-2.375 c 0,0 -6,-5.75 -5.375,-8.75 0.625,-3 1.5,-8 0.125,-19.125 -1.375,-11.125 -1.875,-17.25 -1.875,-17.25 l -5.25,-8.25 c 0,0 -1.625,6.625 -0.5,9.75 1.125,3.125 0.67678,11.93934 0.67678,11.93934 -19.85419,15.63236 -44.75736,15.47855 -44.75736,15.47855 -8,4.625 -28.45343,13.61244 -28.45343,13.61244 0,0 47.05692,2.50359 75.87152,-19.94705 0,0 2.70964,6.94231 -2.47488,11.84404 -9.72272,9.19239 -55.95245,30.31553 -110.79479,10.84967 -1.74501,-1.5588 -6.26265,-2.32473 -5.87966,-0.15024 z"
           id="path1190"
           inkscape:connector-curvature="0"
           sodipodi:nodetypes="cccsccssccsscccscc" />
        <path
           style="fill:#ffffff;stroke:none;stroke-width:1px;stroke-linecap:butt;stroke-linejoin:miter;stroke-opacity:1;fill-opacity:1"
           d="m 148.13887,244.38537 c 0,0 -4.74674,-11.12426 -8.39689,-12.8163 -1.32871,-0.61593 5.65685,12.63953 1.23744,14.67246 l 8.13172,8.30851 c 0,0 -0.0884,-4.24265 -1.94454,-6.54074 -1.85615,-2.2981 0.97227,-3.62393 0.97227,-3.62393 z"
           id="path1192"
           inkscape:connector-curvature="0"
           sodipodi:nodetypes="cscccc" />
        <path
           style="fill:#ffffff;stroke-width:1px;stroke-linecap:butt;stroke-linejoin:miter;stroke-opacity:1;fill-opacity:1"
           d="m 151.85118,256.58297 c 0,0 3.62392,0.35355 4.50781,1.94454 0.88388,1.59099 0.97227,-4.24264 0.53033,-4.68458 -0.44195,-0.44194 6.62912,4.41942 9.8111,4.68458 3.18198,0.26517 -2.2981,0.57453 -0.13258,2.54117 2.16552,1.96664 -4.90555,-0.7734 -4.90555,-0.7734 0,0 0.35354,5.30329 -3.00521,7.95496 -2.20971,-0.26517 -6.8059,-11.66727 -6.8059,-11.66727 z"
           id="path1194"
           inkscape:connector-curvature="0"
           sodipodi:nodetypes="ccccsccc" />
        <path
           style="fill:#ffffff;stroke:none;stroke-width:1px;stroke-linecap:butt;stroke-linejoin:miter;stroke-opacity:1;fill-opacity:1"
           d="m 246.29413,281.3317 c -8.59417,2.79693 -9.59844,0.46905 -12.8605,10e-6 -3.26206,-0.46905 -5.75684,-4.8159 -4.02972,-4.39844 4.18519,2.24732 13.43457,3.07797 17.52678,0.86558 2.62631,-1.72254 2.72175,2.43991 -0.63656,3.53285 z"
           id="path1198"
           inkscape:connector-curvature="0"
           sodipodi:nodetypes="szccs" />
        <path
           style="fill:#ffffff;stroke:none;stroke-width:1px;stroke-linecap:butt;stroke-linejoin:miter;stroke-opacity:1;fill-opacity:1"
           d="m 153.43374,271.26138 4.7814,-0.006 c 0,0 -2.47487,19.62222 2.47488,30.22882 4.94974,10.6066 11.82408,28.06497 17.67767,28.28427 30.67076,1.14905 56.52588,-7.99465 63.81639,-15.11441 0.79235,-0.77379 -6.01042,-13.87697 -5.12653,-15.29118 2.47487,-0.61872 6.18718,-3.71231 8.3085,-5.83363 2.12132,-2.12132 3.8007,1.67938 0.7955,3.8007 -3.00521,2.12132 -6.08521,1.4809 -5.07554,6.13214 l 8.3459,17.99787 c 0,0 -24.74873,20.85966 -65.58415,16.44024 l -8.13173,-0.35356 c 0,0 -26.1798,-28.62593 -22.28229,-66.28531 z"
           id="path1200"
           inkscape:connector-curvature="0"
           sodipodi:nodetypes="ccssscsccccccc" />
      </g>
      <g
         inkscape:groupmode="layer"
         id="layer26"
         inkscape:label="adornos"
         style="display:inline;opacity:1">
        <path
           style="fill:#ffffff;stroke:none;stroke-width:1px;stroke-linecap:butt;stroke-linejoin:miter;stroke-opacity:1;fill-opacity:1"
           d="m 240.68147,177.03345 c 1.32661,-1.48952 21.53886,-5.49711 22.80419,-4.59619 1.26533,0.90092 4.71707,13.52266 3.88909,15.29118 -0.82798,1.76852 -22.66943,4.78993 -23.5113,4.33103 -0.84187,-0.4589 -4.50859,-13.5365 -3.18198,-15.02602 z"
           id="path1230"
           inkscape:connector-curvature="0"
           sodipodi:nodetypes="zzzzz" />
        <path
           style="display:inline;fill:#ffffff;stroke:none;stroke-width:1px;stroke-linecap:butt;stroke-linejoin:miter;stroke-opacity:1;fill-opacity:1"
           d="m 244.0834,199.09024 c 1.32661,-1.48952 21.41386,-4.80516 22.55419,-4.27924 1.14033,0.52592 2.52881,4.62576 1.70083,6.39428 -0.82798,1.76852 -22.84621,5.0551 -23.68808,4.5962 -0.84187,-0.4589 -1.89355,-5.22172 -0.56694,-6.71124 z"
           id="path1230-7"
           inkscape:connector-curvature="0"
           sodipodi:nodetypes="zzzzz" />
        <path
           style="fill:#ffffff;stroke:none;stroke-width:1px;stroke-linecap:butt;stroke-linejoin:miter;stroke-opacity:1;fill-opacity:1"
           d="m 246.375,122.04102 -17.13086,2.10156 1.83789,18.61328 c 0,0 -0.48043,6.61819 8.51563,7.07812 10.38107,-0.36152 10.03592,-9.57557 8.98242,-17.35937 -1.05349,-7.7838 -2.20508,-10.43359 -2.20508,-10.43359 z m -1.54297,2.97265 c 0,0 0.9062,2.08206 1.73438,8.20117 0.82819,6.11911 1.09841,13.36424 -7.0625,13.64844 -7.07211,-0.36157 -6.69336,-5.5664 -6.69336,-5.5664 l -1.44532,-14.63086 z"
           id="path1247"
           inkscape:connector-curvature="0" />
        <path
           style="fill:#ffffff;stroke:none;stroke-width:1.06578946;fill-opacity:1"
           id="path1265"
           sodipodi:type="arc"
           sodipodi:cx="211.42493"
           sodipodi:cy="198.95377"
           sodipodi:rx="14.318913"
           sodipodi:ry="14.318913"
           sodipodi:start="0"
           sodipodi:end="6.1580801"
           sodipodi:open="true"
           d="m 225.74384,198.95377 a 14.318913,14.318913 0 0 1 -13.87114,14.31191 14.318913,14.318913 0 0 1 -14.73868,-13.41681 14.318913,14.318913 0 0 1 12.94935,-15.15103 14.318913,14.318913 0 0 1 15.54856,12.46922" />
        <path
           style="display:inline;fill:#ffffff;stroke:none;stroke-width:1.06578946;fill-opacity:1"
           id="path1265-9"
           sodipodi:type="arc"
           sodipodi:cx="236.88077"
           sodipodi:cy="228.82903"
           sodipodi:rx="14.318913"
           sodipodi:ry="14.318913"
           sodipodi:start="0"
           sodipodi:end="6.1580801"
           sodipodi:open="true"
           d="m 251.19968,228.82903 a 14.318913,14.318913 0 0 1 -13.87114,14.31191 14.318913,14.318913 0 0 1 -14.73868,-13.41681 14.318913,14.318913 0 0 1 12.94935,-15.15103 14.318913,14.318913 0 0 1 15.54856,12.46922" />
        <path
           style="fill:#ffffff;stroke:none;stroke-width:1px;stroke-linecap:butt;stroke-linejoin:miter;stroke-opacity:1;fill-opacity:1"
           d="m 198.87305,199.48438 c -29.5217,27.40038 -48.24805,0.43164 -48.24805,0.43164 l -7.08203,8.05273 c 0,0 18.05069,33.99623 66.29101,3.53711 -1.25715,-4.47295 -10.96093,-12.02148 -10.96093,-12.02148 z m -49.33893,3.71683 c 0,0 13.65806,24.79012 46.14741,4.67973 4.39392,-0.54389 6.09241,1.12398 4.21679,4.74019 -33.50145,19.1282 -53.64845,-3.70518 -53.75574,-4.60746 -0.2553,-2.14697 3.39154,-4.81246 3.39154,-4.81246 z"
           id="path1282"
           inkscape:connector-curvature="0"
           sodipodi:nodetypes="cccccccccc" />
        <path
           style="display:inline;fill:#ffffff;stroke:none;stroke-width:1px;stroke-linecap:butt;stroke-linejoin:miter;stroke-opacity:1;fill-opacity:1"
           d="m 225.36688,230.34087 c -57.34213,42.51042 -79.73013,-15.43775 -79.73013,-15.43775 l -7.51937,10.09067 c 0,0 13.57522,69.07507 96.59059,18.66632 -0.6774,-4.59661 -9.34109,-13.31924 -9.34109,-13.31924 z m -80.70008,-9.313 c 0,0 15.87058,56.55619 76.28867,18.29553 4.42741,0.02 6.07649,0.82988 3.7557,4.17785 -66.42342,39.63247 -84.02952,-17.22332 -84.02105,-18.13191 0.0201,-2.162 3.97668,-4.34147 3.97668,-4.34147 z"
           id="path1282-6"
           inkscape:connector-curvature="0"
           sodipodi:nodetypes="cccccccccc" />
        <path
           style="fill:#ffffff;stroke:none;stroke-width:1px;stroke-linecap:butt;stroke-linejoin:miter;stroke-opacity:1;fill-opacity:1"
           d="m 229.24414,124.14258 -12.86914,1.89844 c 0,0 -6.25,1.5 -6.75,1.875 -0.5,0.375 -4,3.125 -4,3.125 l 1.11914,30.67773 c 0,0 1.76084,9.94852 9.63086,9.82227 3.06542,-0.0492 32.87111,-1.74559 40.71484,-3.40235 3.86073,-0.81546 9.66016,-3.34765 9.66016,-11.22265 0,-7.875 -1.75,-25.5 -1.75,-25.5 l -2,-2 0.125,-2.625 -0.5,-1.75 z m 18.32813,2.63281 c 5.34689,0.0525 10.49778,0.41247 12.03125,1.69922 3.06694,2.57349 3.5765,19.671 3.625,26.5293 0.0485,6.8583 -4.40995,8.39295 -7.22852,8.98828 -5.7264,1.20954 -29.03924,2.80164 -31.27734,2.77734 -7.77853,-0.0846 -7.29688,-7.08398 -7.29688,-7.08398 -0.18642,-9.09413 -2.10835,-26.02427 -0.92578,-28.92188 2.13747,-4.80335 12.48524,-3.91865 17.86914,-3.84765 2.31405,0.0623 7.85623,-0.19311 13.20313,-0.14063 z m -36.61524,4.00391 c 0.35843,0.007 0.733,0.49756 1.06445,1.90625 0.53033,2.25391 -0.20119,1.68147 0.72852,5.42383 0.84063,0.69999 -1.00578,18.92224 -0.0312,22.48437 0.97456,3.56213 0.85819,3.68927 2.80273,5.45703 1.94455,1.76777 3.68095,3.46978 1.0293,2.93945 -2.65165,-0.53033 -6.14767,-1.48958 -6.47285,-5.39254 -0.44285,-2.44714 -1.13203,-1.70275 -1.2166,-2.69535 -0.54198,-6.36101 0.59765,-27.82031 0.59765,-27.82031 0,0 0.70951,-2.3184 1.49805,-2.30273 z"
           id="path1315"
           inkscape:connector-curvature="0"
           sodipodi:nodetypes="ccsccccscccccscccccccsccccsscccc" />
      </g>
    </g>
    <g
       inkscape:groupmode="layer"
       id="layer9"
       inkscape:label="motxilla"
       style="display:inline">
      <g
         inkscape:groupmode="layer"
         id="layer10"
         inkscape:label="trazo"
         style="display:inline;opacity:1">
        <path
           style="fill:#ffffff;stroke:none;stroke-width:1px;stroke-linecap:butt;stroke-linejoin:miter;stroke-opacity:1;fill-opacity:1"
           d="m 158.13867,28.332031 c -0.0971,-0.0048 -0.20662,0.0085 -0.32812,0.03711 -3.88809,0.914845 -21.26913,2.743943 -33.16211,5.259765 -11.89298,2.515823 -24.816407,14.523627 -27.103518,23.44336 -2.287111,8.919733 2.566428,41.215291 4.117578,49.171394 1.55116,7.9561 12.92208,9.60692 14.52305,14.2955 1.60098,4.68858 2.8582,36.02148 2.8582,36.02148 0,0 6.16772,-3.72085 18.75498,-14.40947 20.46964,-17.38205 20.64897,-16.92555 21.6994,-19.63793 1.85092,-7.2866 -5.80477,-16.38238 -5.80477,-16.38238 l -4.80274,-28.589844 3.88868,-33.392578 c 0,0 8.37104,-15.668841 5.35937,-15.816407 z m -5.24609,5.353516 c 0,0 -18.79046,37.822507 3.52734,86.177733 0,0 -2.91313,5.46161 -9.55469,11.21875 -7.42178,6.43346 -11.06445,7.93164 -11.06445,7.93164 0,0 -4.54562,-34.93551 -6.10937,-50.199217 -1.56376,-15.263711 -3.34522,-42.362156 -3.34522,-42.362156 0,0 -2.13296,-9.619533 2.61279,-9.905422 6.3964,-0.385325 23.9336,-2.861328 23.9336,-2.861328 z m -32.08985,7.263672 c 1.27154,0.07219 1.32647,1.737231 1.48819,4.446094 7.41349,63.510347 9.04809,98.651217 9.04809,98.651217 0,0 -4.24489,5.9038 -6.83247,4.69088 -1.90144,-5.6728 -2.16699,-21.86639 -2.97949,-29.43351 -3.73972,-6.84498 -5.41793,-5.92103 -7.18916,-6.98749 -9.24152,-5.56434 -9.52885,-13.594248 -10.63144,-20.184285 -1.1026,-6.590038 -2.28335,-27.97819 -1.30411,-33.466109 1.34255,-7.523946 15.89844,-17.183594 15.89844,-17.183594 0,0 1.23042,-0.605394 2.50195,-0.533203 z"
           id="path929"
           inkscape:connector-curvature="0"
           sodipodi:nodetypes="ccszzccscccccccscscsccccccszccc" />
      </g>
    </g>
    <g
       inkscape:groupmode="layer"
       id="layer6"
       inkscape:label="Casc"
       style="display:inline">
      <g
         inkscape:groupmode="layer"
         id="layer5"
         inkscape:label="vidre"
         style="display:inline;opacity:1">
        <path
           style="fill:#ffffff;fill-opacity:1"
           d="m 225.27344,20.625 c -31.49781,0.353787 -52.25283,30.328554 -47.79297,45.251953 -2.74453,9.148444 -9.37831,6.633194 -12.35156,17.611328 -5.26036,33.849249 41.16793,45.055479 80.04882,39.566409 38.88089,-5.48907 37.70827,-40.346587 37.05274,-48.029299 -0.33437,-3.918826 -6.86328,-5.946475 -9.15039,-20.583985 C 270.79297,39.803895 259.81641,31.798828 259.81641,31.798828 247.46601,23.679584 235.77271,20.507071 225.27344,20.625 Z m 8.1289,14.083984 c 2.36627,-0.03455 5.12838,0.326338 8.34571,1.207032 14.09742,3.858955 15.58097,14.134643 16.69531,18.86914 1.57002,6.670585 0.68575,15.666016 -13.26563,15.666016 -13.95137,0 -23.33066,-16.771504 -24.92968,-20.240234 -0.86674,-3.602154 0.37644,-15.315393 13.15429,-15.501954 z m 27.86133,40.13086 c 3.74316,-2.87e-4 6.77766,2.949384 6.77735,6.58789 3.1e-4,3.638506 -3.03419,6.588178 -6.77735,6.587891 -3.74316,2.81e-4 -6.77765,-2.949389 -6.77734,-6.587891 -3.1e-4,-3.638502 3.03418,-6.588171 6.77734,-6.58789 z"
           id="path878"
           inkscape:connector-curvature="0"
           sodipodi:nodetypes="sccssscssscscsccccc" />
      </g>
      <g
         inkscape:groupmode="layer"
         id="layer7"
         inkscape:label="contorn"
         style="display:inline;opacity:1">
        <path
           style="fill:#ffffff;stroke:none;stroke-width:1px;stroke-linecap:butt;stroke-linejoin:miter;stroke-opacity:1"
           d="M 218.91602,0.10742188 C 191.00625,-0.23275126 166.87707,15.656508 157.67969,28.462891 c -17.98904,25.047835 -9.50466,70.246622 -3.88086,84.257809 2.50462,6.24003 5.70802,8.18592 9.86523,10.67383 11.42136,6.83518 38.65235,10.02735 38.65235,10.02735 0,-10e-6 3.65815,0.4003 5.39311,-2.25426 1.2366,-1.97824 3.75007,-1.88556 6.64971,-3.15155 9.10263,-3.97424 48.08675,0.01 50.86733,-2.19576 6.32504,-5.01738 18.48141,-6.259 21.02344,-12.1289 C 307.22295,65.262034 281.72266,34.285156 281.72266,34.285156 261.66393,9.2458612 239.2826,0.35565632 218.91602,0.10742188 Z m 0.0957,4.31640622 c 19.18476,0.2724415 40.15693,8.4218199 58.2832,31.0488279 0,0 22.55983,30.419907 3.60742,74.183594 -2.29713,5.30439 -11.66671,10.46842 -18.02929,11.92969 -3.12589,0.71791 -33.47067,1.00831 -46.91285,3.19277 -1.34987,0.21936 -7.16025,0.87652 -8.32939,2.92252 -1.70894,1.7919 -4.19331,1.56244 -4.19331,1.56244 0,0 -27.51881,-2.23739 -37.83984,-8.41406 -3.7567,-2.24823 -5.03356,-7.40215 -7.29688,-13.04102 -5.082,-12.661348 -10.96027,-53.492831 3.83008,-77.111324 7.65684,-12.227088 30.59063,-26.6467837 56.88086,-26.2734379 z"
           id="path907"
           inkscape:connector-curvature="0"
           sodipodi:nodetypes="ssssccssscsscssscccsss" />
        <path
           style="fill:#ffffff;stroke:none;stroke-width:1px;stroke-linecap:butt;stroke-linejoin:miter;stroke-opacity:1;fill-opacity:1"
           d="m 159.87305,120.48633 c -3.68008,0.19143 -2.49437,7.39022 0.83949,9.61017 4.26734,2.84156 25.72084,12.28564 38.47224,12.62888 12.7514,0.34324 10.50533,-13.44607 2.64725,-11.80936 -7.85808,1.63671 -30.83655,-3.27809 -38.04687,-8.81446 -1.57726,-1.21108 -2.88169,-1.66883 -3.91211,-1.61523 z m 1.33948,2.1262 c 1.06066,-0.034 3.47361,1.47691 5.46682,2.61759 8.89001,5.08762 25.07289,9.2806 32.29403,7.77655 7.22113,-1.50404 10.28155,6.12819 -1.43627,5.81278 -11.71783,-0.31542 -29.72844,-7.47346 -33.64989,-10.08469 -2.94108,-1.95841 -5.77581,-5.21162 -2.67469,-6.12223 z"
           id="path838"
           inkscape:connector-curvature="0"
           sodipodi:nodetypes="scsscscscscc" />
        <path
           style="display:inline;opacity:1;fill:#ffffff;stroke:none;stroke-width:0.55731994px;stroke-linecap:butt;stroke-linejoin:miter;stroke-opacity:1;fill-opacity:1"
           d="m 286.15625,113.42188 c -0.79419,-0.0489 -1.77739,0.40844 -2.90039,1.63671 -4.492,4.91311 -9.40543,6.80109 -16.93945,8.25391 -7.53402,1.45282 -5.47566,11.38748 1.15039,9.59766 12.649,-3.41673 17.50692,-10.64068 19.62734,-13.48597 2.12043,-2.84529 1.44468,-5.85576 -0.93789,-6.00231 z m -3.41081,4.22585 c 1.79169,-0.96881 2.59352,1.35831 0.29532,3.26849 -2.2982,1.91018 -3.25995,4.14305 -14.65424,8.46302 -5.52108,2.09323 -5.3091,-2.92362 -0.50368,-4.29679 4.80542,-1.37317 13.07091,-6.4659 14.8626,-7.43472 z"
           id="path838-3"
           inkscape:connector-curvature="0"
           sodipodi:nodetypes="cczszczzszz" />
      </g>
    </g>
  </g>
</svg>
